<mxfile host="app.diagrams.net" modified="2022-06-03T03:46:53.281Z" agent="5.0 (Macintosh; Intel Mac OS X 10_15_7) AppleWebKit/537.36 (KHTML, like Gecko) Chrome/102.0.5005.61 Safari/537.36" etag="eOfpIjDIWamPuTHa_SFL" version="18.2.0" type="github">
  <diagram id="C5RBs43oDa-KdzZeNtuy" name="MainViewController">
    <mxGraphModel dx="5556" dy="1405" grid="1" gridSize="10" guides="1" tooltips="1" connect="1" arrows="1" fold="1" page="1" pageScale="1" pageWidth="827" pageHeight="1169" math="0" shadow="0">
      <root>
        <mxCell id="WIyWlLk6GJQsqaUBKTNV-0" />
        <mxCell id="WIyWlLk6GJQsqaUBKTNV-1" parent="WIyWlLk6GJQsqaUBKTNV-0" />
        <mxCell id="WIyWlLk6GJQsqaUBKTNV-2" value="" style="rounded=0;html=1;jettySize=auto;orthogonalLoop=1;fontSize=11;endArrow=block;endFill=0;endSize=8;strokeWidth=1;shadow=0;labelBackgroundColor=none;edgeStyle=orthogonalEdgeStyle;" parent="WIyWlLk6GJQsqaUBKTNV-1" source="WIyWlLk6GJQsqaUBKTNV-3" target="WIyWlLk6GJQsqaUBKTNV-6" edge="1">
          <mxGeometry relative="1" as="geometry" />
        </mxCell>
        <mxCell id="WIyWlLk6GJQsqaUBKTNV-3" value="MainViewController(메인화면)" style="rounded=1;whiteSpace=wrap;html=1;fontSize=12;glass=0;strokeWidth=1;shadow=0;" parent="WIyWlLk6GJQsqaUBKTNV-1" vertex="1">
          <mxGeometry x="265" y="20" width="230" height="40" as="geometry" />
        </mxCell>
        <mxCell id="WIyWlLk6GJQsqaUBKTNV-4" value="" style="rounded=0;html=1;jettySize=auto;orthogonalLoop=1;fontSize=11;endArrow=block;endFill=0;endSize=8;strokeWidth=1;shadow=0;labelBackgroundColor=none;edgeStyle=orthogonalEdgeStyle;entryX=0.5;entryY=0;entryDx=0;entryDy=0;" parent="WIyWlLk6GJQsqaUBKTNV-1" source="WIyWlLk6GJQsqaUBKTNV-6" target="2KES1xXdtcJ5aEifNKE4-2" edge="1">
          <mxGeometry x="0.01" y="20" relative="1" as="geometry">
            <mxPoint as="offset" />
            <Array as="points">
              <mxPoint x="380" y="620" />
              <mxPoint x="-655" y="620" />
            </Array>
          </mxGeometry>
        </mxCell>
        <mxCell id="WIyWlLk6GJQsqaUBKTNV-6" value="LeftSideMenuViewController(사이드메뉴 화면)" style="rhombus;whiteSpace=wrap;html=1;shadow=0;fontFamily=Helvetica;fontSize=12;align=center;strokeWidth=1;spacing=6;spacingTop=-4;" parent="WIyWlLk6GJQsqaUBKTNV-1" vertex="1">
          <mxGeometry x="230" y="390" width="300" height="120" as="geometry" />
        </mxCell>
        <mxCell id="2KES1xXdtcJ5aEifNKE4-1" value="" style="rounded=0;html=1;jettySize=auto;orthogonalLoop=1;fontSize=11;endArrow=block;endFill=0;endSize=8;strokeWidth=1;shadow=0;labelBackgroundColor=none;edgeStyle=orthogonalEdgeStyle;exitX=0.5;exitY=1;exitDx=0;exitDy=0;entryX=0.5;entryY=0;entryDx=0;entryDy=0;" edge="1" parent="WIyWlLk6GJQsqaUBKTNV-1" source="WIyWlLk6GJQsqaUBKTNV-6" target="2KES1xXdtcJ5aEifNKE4-4">
          <mxGeometry y="20" relative="1" as="geometry">
            <mxPoint as="offset" />
            <mxPoint x="390" y="310" as="sourcePoint" />
            <mxPoint x="520" y="390" as="targetPoint" />
            <Array as="points">
              <mxPoint x="380" y="620" />
              <mxPoint x="-390" y="620" />
            </Array>
          </mxGeometry>
        </mxCell>
        <mxCell id="2KES1xXdtcJ5aEifNKE4-2" value="&lt;span style=&quot;&quot;&gt;NotificationViewController(공지사항)&lt;br&gt;-&amp;gt; Side.storyboard&lt;br&gt;&lt;/span&gt;" style="rounded=1;whiteSpace=wrap;html=1;" vertex="1" parent="WIyWlLk6GJQsqaUBKTNV-1">
          <mxGeometry x="-760" y="770" width="210" height="60" as="geometry" />
        </mxCell>
        <mxCell id="2KES1xXdtcJ5aEifNKE4-4" value="&lt;span style=&quot;&quot;&gt;TripListViewController(나의여정)&lt;br&gt;-&amp;gt; Trip.storyboard&lt;br&gt;&lt;/span&gt;" style="rounded=1;whiteSpace=wrap;html=1;" vertex="1" parent="WIyWlLk6GJQsqaUBKTNV-1">
          <mxGeometry x="-500" y="770" width="220" height="60" as="geometry" />
        </mxCell>
        <mxCell id="2KES1xXdtcJ5aEifNKE4-9" value="CardListViewController(결제관리)&lt;br&gt;-&amp;gt; Card.storyboard" style="rounded=1;whiteSpace=wrap;html=1;" vertex="1" parent="WIyWlLk6GJQsqaUBKTNV-1">
          <mxGeometry x="-250" y="770" width="240" height="60" as="geometry" />
        </mxCell>
        <mxCell id="2KES1xXdtcJ5aEifNKE4-11" value="" style="rounded=0;html=1;jettySize=auto;orthogonalLoop=1;fontSize=11;endArrow=block;endFill=0;endSize=8;strokeWidth=1;shadow=0;labelBackgroundColor=none;edgeStyle=orthogonalEdgeStyle;entryX=0.5;entryY=0;entryDx=0;entryDy=0;exitX=0.5;exitY=1;exitDx=0;exitDy=0;" edge="1" parent="WIyWlLk6GJQsqaUBKTNV-1" source="WIyWlLk6GJQsqaUBKTNV-6" target="2KES1xXdtcJ5aEifNKE4-9">
          <mxGeometry y="20" relative="1" as="geometry">
            <mxPoint as="offset" />
            <mxPoint x="430" y="330" as="sourcePoint" />
            <mxPoint x="-380" y="780" as="targetPoint" />
            <Array as="points">
              <mxPoint x="380" y="620" />
              <mxPoint x="-130" y="620" />
            </Array>
          </mxGeometry>
        </mxCell>
        <mxCell id="2KES1xXdtcJ5aEifNKE4-12" value="" style="rounded=0;html=1;jettySize=auto;orthogonalLoop=1;fontSize=11;endArrow=block;endFill=0;endSize=8;strokeWidth=1;shadow=0;labelBackgroundColor=none;edgeStyle=orthogonalEdgeStyle;entryX=0.5;entryY=0;entryDx=0;entryDy=0;exitX=0.5;exitY=1;exitDx=0;exitDy=0;" edge="1" parent="WIyWlLk6GJQsqaUBKTNV-1" source="WIyWlLk6GJQsqaUBKTNV-6" target="2KES1xXdtcJ5aEifNKE4-13">
          <mxGeometry y="20" relative="1" as="geometry">
            <mxPoint as="offset" />
            <mxPoint x="390" y="310" as="sourcePoint" />
            <mxPoint x="-60" y="780" as="targetPoint" />
            <Array as="points">
              <mxPoint x="380" y="620" />
              <mxPoint x="130" y="620" />
            </Array>
          </mxGeometry>
        </mxCell>
        <mxCell id="2KES1xXdtcJ5aEifNKE4-13" value="CouponListViewController(쿠폰함)&lt;br&gt;-&amp;gt; CouponListStory.storyboard" style="rounded=1;whiteSpace=wrap;html=1;" vertex="1" parent="WIyWlLk6GJQsqaUBKTNV-1">
          <mxGeometry x="10" y="770" width="240" height="60" as="geometry" />
        </mxCell>
        <mxCell id="2KES1xXdtcJ5aEifNKE4-14" value="MyCashListViewController(캐시조회)&lt;br&gt;-&amp;gt; Side.storyboard" style="rounded=1;whiteSpace=wrap;html=1;" vertex="1" parent="WIyWlLk6GJQsqaUBKTNV-1">
          <mxGeometry x="260" y="770" width="240" height="60" as="geometry" />
        </mxCell>
        <mxCell id="2KES1xXdtcJ5aEifNKE4-15" value="" style="rounded=0;html=1;jettySize=auto;orthogonalLoop=1;fontSize=11;endArrow=block;endFill=0;endSize=8;strokeWidth=1;shadow=0;labelBackgroundColor=none;edgeStyle=orthogonalEdgeStyle;entryX=0.5;entryY=0;entryDx=0;entryDy=0;exitX=0.5;exitY=1;exitDx=0;exitDy=0;" edge="1" parent="WIyWlLk6GJQsqaUBKTNV-1" source="WIyWlLk6GJQsqaUBKTNV-6" target="2KES1xXdtcJ5aEifNKE4-14">
          <mxGeometry y="20" relative="1" as="geometry">
            <mxPoint as="offset" />
            <mxPoint x="390" y="310" as="sourcePoint" />
            <mxPoint x="140" y="780" as="targetPoint" />
            <Array as="points">
              <mxPoint x="380" y="770" />
            </Array>
          </mxGeometry>
        </mxCell>
        <mxCell id="2KES1xXdtcJ5aEifNKE4-16" value="CommonWebViewController(이벤트)&lt;br&gt;-&amp;gt; Common.storyboard" style="rounded=1;whiteSpace=wrap;html=1;" vertex="1" parent="WIyWlLk6GJQsqaUBKTNV-1">
          <mxGeometry x="510" y="770" width="240" height="60" as="geometry" />
        </mxCell>
        <mxCell id="2KES1xXdtcJ5aEifNKE4-17" value="" style="rounded=0;html=1;jettySize=auto;orthogonalLoop=1;fontSize=11;endArrow=block;endFill=0;endSize=8;strokeWidth=1;shadow=0;labelBackgroundColor=none;edgeStyle=orthogonalEdgeStyle;entryX=0.5;entryY=0;entryDx=0;entryDy=0;exitX=0.5;exitY=1;exitDx=0;exitDy=0;" edge="1" parent="WIyWlLk6GJQsqaUBKTNV-1" source="WIyWlLk6GJQsqaUBKTNV-6" target="2KES1xXdtcJ5aEifNKE4-16">
          <mxGeometry y="20" relative="1" as="geometry">
            <mxPoint as="offset" />
            <mxPoint x="390" y="310" as="sourcePoint" />
            <mxPoint x="390" y="780" as="targetPoint" />
            <Array as="points">
              <mxPoint x="380" y="620" />
              <mxPoint x="630" y="620" />
            </Array>
          </mxGeometry>
        </mxCell>
        <mxCell id="2KES1xXdtcJ5aEifNKE4-18" value="InviteViewController(친구초대)&lt;br&gt;-&amp;gt; Side.storyboard" style="rounded=1;whiteSpace=wrap;html=1;" vertex="1" parent="WIyWlLk6GJQsqaUBKTNV-1">
          <mxGeometry x="760" y="770" width="240" height="60" as="geometry" />
        </mxCell>
        <mxCell id="2KES1xXdtcJ5aEifNKE4-19" value="" style="rounded=0;html=1;jettySize=auto;orthogonalLoop=1;fontSize=11;endArrow=block;endFill=0;endSize=8;strokeWidth=1;shadow=0;labelBackgroundColor=none;edgeStyle=orthogonalEdgeStyle;entryX=0.5;entryY=0;entryDx=0;entryDy=0;exitX=0.5;exitY=1;exitDx=0;exitDy=0;" edge="1" parent="WIyWlLk6GJQsqaUBKTNV-1" source="WIyWlLk6GJQsqaUBKTNV-6" target="2KES1xXdtcJ5aEifNKE4-18">
          <mxGeometry y="20" relative="1" as="geometry">
            <mxPoint as="offset" />
            <mxPoint x="390" y="310" as="sourcePoint" />
            <mxPoint x="640" y="780" as="targetPoint" />
            <Array as="points">
              <mxPoint x="380" y="620" />
              <mxPoint x="880" y="620" />
            </Array>
          </mxGeometry>
        </mxCell>
        <mxCell id="2KES1xXdtcJ5aEifNKE4-21" value="BusinessTermsViewController(비즈니스)&lt;br&gt;-&amp;gt; Business.storyboard" style="rounded=1;whiteSpace=wrap;html=1;" vertex="1" parent="WIyWlLk6GJQsqaUBKTNV-1">
          <mxGeometry x="1010" y="770" width="240" height="60" as="geometry" />
        </mxCell>
        <mxCell id="2KES1xXdtcJ5aEifNKE4-22" value="" style="rounded=0;html=1;jettySize=auto;orthogonalLoop=1;fontSize=11;endArrow=block;endFill=0;endSize=8;strokeWidth=1;shadow=0;labelBackgroundColor=none;edgeStyle=orthogonalEdgeStyle;entryX=0.5;entryY=0;entryDx=0;entryDy=0;exitX=0.5;exitY=1;exitDx=0;exitDy=0;" edge="1" parent="WIyWlLk6GJQsqaUBKTNV-1" source="WIyWlLk6GJQsqaUBKTNV-6" target="2KES1xXdtcJ5aEifNKE4-21">
          <mxGeometry y="20" relative="1" as="geometry">
            <mxPoint as="offset" />
            <mxPoint x="440" y="390" as="sourcePoint" />
            <mxPoint x="890" y="780" as="targetPoint" />
            <Array as="points">
              <mxPoint x="380" y="620" />
              <mxPoint x="1130" y="620" />
            </Array>
          </mxGeometry>
        </mxCell>
        <mxCell id="2KES1xXdtcJ5aEifNKE4-23" value="NewSupportViewController(고객센터)&lt;br&gt;-&amp;gt; Side.storyboard" style="rounded=1;whiteSpace=wrap;html=1;" vertex="1" parent="WIyWlLk6GJQsqaUBKTNV-1">
          <mxGeometry x="1280" y="770" width="240" height="60" as="geometry" />
        </mxCell>
        <mxCell id="2KES1xXdtcJ5aEifNKE4-24" value="" style="rounded=0;html=1;jettySize=auto;orthogonalLoop=1;fontSize=11;endArrow=block;endFill=0;endSize=8;strokeWidth=1;shadow=0;labelBackgroundColor=none;edgeStyle=orthogonalEdgeStyle;entryX=0.5;entryY=0;entryDx=0;entryDy=0;exitX=0.5;exitY=1;exitDx=0;exitDy=0;" edge="1" parent="WIyWlLk6GJQsqaUBKTNV-1" source="WIyWlLk6GJQsqaUBKTNV-6" target="2KES1xXdtcJ5aEifNKE4-23">
          <mxGeometry y="20" relative="1" as="geometry">
            <mxPoint as="offset" />
            <mxPoint x="390" y="310" as="sourcePoint" />
            <mxPoint x="1140" y="780" as="targetPoint" />
            <Array as="points">
              <mxPoint x="380" y="620" />
              <mxPoint x="1400" y="620" />
            </Array>
          </mxGeometry>
        </mxCell>
        <mxCell id="2KES1xXdtcJ5aEifNKE4-25" value="SettingViewController(앱 설정)&lt;br&gt;-&amp;gt; Setting.storyboard" style="rounded=1;whiteSpace=wrap;html=1;" vertex="1" parent="WIyWlLk6GJQsqaUBKTNV-1">
          <mxGeometry x="1540" y="770" width="240" height="60" as="geometry" />
        </mxCell>
        <mxCell id="2KES1xXdtcJ5aEifNKE4-26" value="" style="rounded=0;html=1;jettySize=auto;orthogonalLoop=1;fontSize=11;endArrow=block;endFill=0;endSize=8;strokeWidth=1;shadow=0;labelBackgroundColor=none;edgeStyle=orthogonalEdgeStyle;entryX=0.5;entryY=0;entryDx=0;entryDy=0;exitX=0.5;exitY=1;exitDx=0;exitDy=0;" edge="1" parent="WIyWlLk6GJQsqaUBKTNV-1" source="WIyWlLk6GJQsqaUBKTNV-6" target="2KES1xXdtcJ5aEifNKE4-25">
          <mxGeometry y="20" relative="1" as="geometry">
            <mxPoint as="offset" />
            <mxPoint x="390" y="310" as="sourcePoint" />
            <mxPoint x="1410" y="780" as="targetPoint" />
            <Array as="points">
              <mxPoint x="380" y="620" />
              <mxPoint x="1660" y="620" />
            </Array>
          </mxGeometry>
        </mxCell>
        <mxCell id="2KES1xXdtcJ5aEifNKE4-27" value="&lt;span style=&quot;&quot;&gt;UserProfileViewController(나의 정보)&lt;br&gt;-&amp;gt; Profile.storyboard&lt;br&gt;&lt;/span&gt;" style="rounded=1;whiteSpace=wrap;html=1;" vertex="1" parent="WIyWlLk6GJQsqaUBKTNV-1">
          <mxGeometry x="-990" y="770" width="210" height="60" as="geometry" />
        </mxCell>
        <mxCell id="2KES1xXdtcJ5aEifNKE4-28" value="" style="rounded=0;html=1;jettySize=auto;orthogonalLoop=1;fontSize=11;endArrow=block;endFill=0;endSize=8;strokeWidth=1;shadow=0;labelBackgroundColor=none;edgeStyle=orthogonalEdgeStyle;entryX=0.5;entryY=0;entryDx=0;entryDy=0;exitX=0.5;exitY=1;exitDx=0;exitDy=0;" edge="1" parent="WIyWlLk6GJQsqaUBKTNV-1" source="WIyWlLk6GJQsqaUBKTNV-6" target="2KES1xXdtcJ5aEifNKE4-27">
          <mxGeometry x="0.01" y="20" relative="1" as="geometry">
            <mxPoint as="offset" />
            <mxPoint x="430" y="390" as="sourcePoint" />
            <mxPoint x="-645" y="780" as="targetPoint" />
            <Array as="points">
              <mxPoint x="380" y="620" />
              <mxPoint x="-885" y="620" />
            </Array>
          </mxGeometry>
        </mxCell>
        <mxCell id="2KES1xXdtcJ5aEifNKE4-35" value="getMemberBasicInfoisCardCheck()&lt;br&gt;카드 등록 여부" style="rhombus;whiteSpace=wrap;html=1;shadow=0;fontFamily=Helvetica;fontSize=12;align=center;strokeWidth=1;spacing=6;spacingTop=-4;" vertex="1" parent="WIyWlLk6GJQsqaUBKTNV-1">
          <mxGeometry x="-2190" y="390" width="300" height="120" as="geometry" />
        </mxCell>
        <mxCell id="2KES1xXdtcJ5aEifNKE4-36" value="" style="rounded=0;html=1;jettySize=auto;orthogonalLoop=1;fontSize=11;endArrow=block;endFill=0;endSize=8;strokeWidth=1;shadow=0;labelBackgroundColor=none;edgeStyle=orthogonalEdgeStyle;exitX=0.5;exitY=1;exitDx=0;exitDy=0;entryX=0.5;entryY=0;entryDx=0;entryDy=0;" edge="1" parent="WIyWlLk6GJQsqaUBKTNV-1" source="WIyWlLk6GJQsqaUBKTNV-3" target="2KES1xXdtcJ5aEifNKE4-35">
          <mxGeometry relative="1" as="geometry">
            <mxPoint x="390" y="70" as="sourcePoint" />
            <mxPoint x="390" y="400" as="targetPoint" />
          </mxGeometry>
        </mxCell>
        <mxCell id="2KES1xXdtcJ5aEifNKE4-38" value="No" style="text;html=1;strokeColor=none;fillColor=none;align=center;verticalAlign=middle;whiteSpace=wrap;rounded=0;" vertex="1" parent="WIyWlLk6GJQsqaUBKTNV-1">
          <mxGeometry x="-1360" y="420" width="60" height="30" as="geometry" />
        </mxCell>
        <mxCell id="2KES1xXdtcJ5aEifNKE4-39" value="&lt;span style=&quot;&quot;&gt;PapaTimeInfoViewController(파파타임)&lt;br&gt;-&amp;gt; PapaTime.storyboard&lt;br&gt;&lt;/span&gt;" style="rounded=1;whiteSpace=wrap;html=1;" vertex="1" parent="WIyWlLk6GJQsqaUBKTNV-1">
          <mxGeometry x="-2410" y="770" width="210" height="60" as="geometry" />
        </mxCell>
        <mxCell id="2KES1xXdtcJ5aEifNKE4-40" value="&lt;span style=&quot;&quot;&gt;PaPaGolfInfoViewController(파파골프)&lt;br&gt;-&amp;gt; PapaGolf.storyboard&lt;br&gt;&lt;/span&gt;" style="rounded=1;whiteSpace=wrap;html=1;" vertex="1" parent="WIyWlLk6GJQsqaUBKTNV-1">
          <mxGeometry x="-2145" y="770" width="210" height="60" as="geometry" />
        </mxCell>
        <mxCell id="2KES1xXdtcJ5aEifNKE4-41" value="PaPaAirInfoViewController&lt;span style=&quot;&quot;&gt;(파파에어)&lt;br&gt;-&amp;gt; PapaAir.storyboard&lt;br&gt;&lt;/span&gt;" style="rounded=1;whiteSpace=wrap;html=1;" vertex="1" parent="WIyWlLk6GJQsqaUBKTNV-1">
          <mxGeometry x="-1910" y="770" width="210" height="60" as="geometry" />
        </mxCell>
        <mxCell id="2KES1xXdtcJ5aEifNKE4-42" value="" style="rounded=0;html=1;jettySize=auto;orthogonalLoop=1;fontSize=11;endArrow=block;endFill=0;endSize=8;strokeWidth=1;shadow=0;labelBackgroundColor=none;edgeStyle=orthogonalEdgeStyle;exitX=0.5;exitY=1;exitDx=0;exitDy=0;entryX=0.5;entryY=0;entryDx=0;entryDy=0;" edge="1" parent="WIyWlLk6GJQsqaUBKTNV-1" source="2KES1xXdtcJ5aEifNKE4-35" target="2KES1xXdtcJ5aEifNKE4-39">
          <mxGeometry relative="1" as="geometry">
            <mxPoint x="390" y="70" as="sourcePoint" />
            <mxPoint x="-2030" y="400" as="targetPoint" />
          </mxGeometry>
        </mxCell>
        <mxCell id="2KES1xXdtcJ5aEifNKE4-43" value="" style="rounded=0;html=1;jettySize=auto;orthogonalLoop=1;fontSize=11;endArrow=block;endFill=0;endSize=8;strokeWidth=1;shadow=0;labelBackgroundColor=none;edgeStyle=orthogonalEdgeStyle;exitX=0.5;exitY=1;exitDx=0;exitDy=0;entryX=0.5;entryY=0;entryDx=0;entryDy=0;" edge="1" parent="WIyWlLk6GJQsqaUBKTNV-1" source="2KES1xXdtcJ5aEifNKE4-35" target="2KES1xXdtcJ5aEifNKE4-40">
          <mxGeometry relative="1" as="geometry">
            <mxPoint x="400" y="80" as="sourcePoint" />
            <mxPoint x="-2295" y="780" as="targetPoint" />
          </mxGeometry>
        </mxCell>
        <mxCell id="2KES1xXdtcJ5aEifNKE4-44" value="" style="rounded=0;html=1;jettySize=auto;orthogonalLoop=1;fontSize=11;endArrow=block;endFill=0;endSize=8;strokeWidth=1;shadow=0;labelBackgroundColor=none;edgeStyle=orthogonalEdgeStyle;entryX=0.5;entryY=0;entryDx=0;entryDy=0;exitX=0.5;exitY=1;exitDx=0;exitDy=0;" edge="1" parent="WIyWlLk6GJQsqaUBKTNV-1" source="2KES1xXdtcJ5aEifNKE4-35" target="2KES1xXdtcJ5aEifNKE4-41">
          <mxGeometry relative="1" as="geometry">
            <mxPoint x="-2620" y="470" as="sourcePoint" />
            <mxPoint x="-2285" y="790" as="targetPoint" />
          </mxGeometry>
        </mxCell>
        <mxCell id="2KES1xXdtcJ5aEifNKE4-45" value="Yes" style="text;html=1;strokeColor=none;fillColor=none;align=center;verticalAlign=middle;whiteSpace=wrap;rounded=0;" vertex="1" parent="WIyWlLk6GJQsqaUBKTNV-1">
          <mxGeometry x="-2020" y="540" width="60" height="30" as="geometry" />
        </mxCell>
        <mxCell id="2KES1xXdtcJ5aEifNKE4-46" value="" style="rounded=0;html=1;jettySize=auto;orthogonalLoop=1;fontSize=11;endArrow=block;endFill=0;endSize=8;strokeWidth=1;shadow=0;labelBackgroundColor=none;edgeStyle=orthogonalEdgeStyle;entryX=0.5;entryY=0;entryDx=0;entryDy=0;exitX=1;exitY=0.5;exitDx=0;exitDy=0;" edge="1" parent="WIyWlLk6GJQsqaUBKTNV-1" source="2KES1xXdtcJ5aEifNKE4-35" target="2KES1xXdtcJ5aEifNKE4-9">
          <mxGeometry relative="1" as="geometry">
            <mxPoint x="-2030" y="520" as="sourcePoint" />
            <mxPoint x="-1795" y="780" as="targetPoint" />
          </mxGeometry>
        </mxCell>
        <mxCell id="2KES1xXdtcJ5aEifNKE4-47" value="Yes" style="text;html=1;strokeColor=none;fillColor=none;align=center;verticalAlign=middle;whiteSpace=wrap;rounded=0;" vertex="1" parent="WIyWlLk6GJQsqaUBKTNV-1">
          <mxGeometry x="400" y="540" width="60" height="30" as="geometry" />
        </mxCell>
        <mxCell id="2KES1xXdtcJ5aEifNKE4-48" value="" style="rounded=0;html=1;jettySize=auto;orthogonalLoop=1;fontSize=11;endArrow=block;endFill=0;endSize=8;strokeWidth=1;shadow=0;labelBackgroundColor=none;edgeStyle=orthogonalEdgeStyle;exitX=1;exitY=0.5;exitDx=0;exitDy=0;entryX=0;entryY=0.5;entryDx=0;entryDy=0;" edge="1" parent="WIyWlLk6GJQsqaUBKTNV-1" source="WIyWlLk6GJQsqaUBKTNV-6" target="2KES1xXdtcJ5aEifNKE4-49">
          <mxGeometry x="0.01" y="20" relative="1" as="geometry">
            <mxPoint as="offset" />
            <mxPoint x="390" y="520" as="sourcePoint" />
            <mxPoint x="2090" y="440" as="targetPoint" />
            <Array as="points" />
          </mxGeometry>
        </mxCell>
        <mxCell id="2KES1xXdtcJ5aEifNKE4-49" value="SearchAddressViewController(예약)&lt;br&gt;-&amp;gt; Search.storyboard" style="rounded=1;whiteSpace=wrap;html=1;" vertex="1" parent="WIyWlLk6GJQsqaUBKTNV-1">
          <mxGeometry x="2140" y="420" width="240" height="60" as="geometry" />
        </mxCell>
        <mxCell id="2KES1xXdtcJ5aEifNKE4-50" value="No" style="text;html=1;strokeColor=none;fillColor=none;align=center;verticalAlign=middle;whiteSpace=wrap;rounded=0;" vertex="1" parent="WIyWlLk6GJQsqaUBKTNV-1">
          <mxGeometry x="1220" y="400" width="60" height="30" as="geometry" />
        </mxCell>
      </root>
    </mxGraphModel>
  </diagram>
</mxfile>
